<?xml version="1.0" encoding="UTF-8"?>
<svg id="Layer_1" data-name="Layer 1" xmlns="http://www.w3.org/2000/svg" viewBox="0 0 785.02 556.22">
  <defs>
    <style>
      .cls-1 {
        fill: #010101;
      }
    </style>
  </defs>
  <polygon points="784.15 556.22 746.6 556.22 746.59 312.79 784.16 312.79 784.15 556.22"/>
  <g>
    <path class="cls-1" d="M147.59,0l3.18,4.16-.6,144.94,36.69.2.05-30.56c.04-4.05,2.9-6.91,6.95-6.96h24.4c3.73.34,6.48,3.13,6.37,6.91v30.41s37.13,0,37.13,0l.04-68.78c0-3.57,3.17-5.73,6.53-5.73l99.8.1c3.87,0,5.69,3.98,5.69,7.32l.05,41.12-.19,57.58c0,2.77-2.27,5.92-5.46,5.92h-218s-.06,49.09-.06,49.09c0,3.79-2.39,6.43-6.24,7.04H7.95c-2.63,0-6.92-1.49-6.93-4.51l-.02-66.11c0-2.94,4.51-4.48,6.74-4.47l23.66.02c4.19.33,7.25,3.56,6.79,7.81l.23,29.51h74.02s.09-161.19.09-161.19l.04-35.11c0-3.7.94-6.47,3.54-8.69h31.48ZM336.19,112.43h-36.88v36.67h36.88v-36.67Z"/>
    <path class="cls-1" d="M73.47,142.79l18.15.98c2.46.13,2.37,7.39.09,8.01l-35.54.31c-1.38-2.87-1.35-5.44-.2-8.15l8.39-1.16.66-28.12,26.56.35c2.39.03,2.52,7.79.24,7.86l-15.73.47c-1.94.06-3.45,1.36-3.35,3.42l.74,16.04Z"/>
    <g>
      <path d="M785.02,116.12v67.24c-1.87,1.09-3.2,3.7-6.32,3.7l-273.03.02-.26,49.51c-.02,3.76-3.15,6.22-6.75,6.37h-23.79c-2.17.01-6.72-1.71-6.72-4.81l-.06-120.97c0-3.19,3.62-5.13,6.18-5.14l24.32-.11c4.1.25,7.04,3.51,7.04,7.66l-.03,29.72h35.61s-.03-29.72-.03-29.72c0-4.08,2.45-7.05,6.53-7.62l25.59.1c3.5.87,5.7,3.11,5.71,6.65l.13,30.59h56.37s.05-30.57.05-30.57c0-3.79,2.76-6.49,6.43-6.76l25.03.1c3.02.01,6.15,2.73,6.16,5.8l.12,31.4,18.09.02.05-30.56c0-3.69,2.75-6.7,6.43-6.7h25.01c3.25,0,6.21,2.53,6.22,5.86l.06,31.41,18.11-.04v-30.54c.01-3.71,2.74-6.7,6.49-6.7l25.02.04c2.87,0,4.56,2.51,6.26,4.06Z"/>
      <path d="M434.89,0l3.46,3.94-.07,230.75c0,4.8-2.27,8.03-6.93,8.04l-23.57.05c-2.59,0-4.67-1.21-5.81-2.58-1.61-1.94-1.33-3.58-1.33-6.39l.2-224.92c0-4.5.55-6.98,4.32-8.9h29.72Z"/>
    </g>
  </g>
  <path class="cls-1" d="M785.01,257.59v8.73s-20.41-.4-20.41-.4l.02,19.17,18.68.57c.81.23,1.35,2.03,1.72,2.49-.26,1.15-.26,2.34,0,3.49-.44.5-1,2.04-1.82,2.61l-36.2-.02c-.47-3.14-.56-5.63-.21-8.64l9.21-.1v-28.97s24.68.03,24.68.03l4.32,1.04Z"/>
  <g>
    <path class="cls-1" d="M0,459.3v-199.09c1.14-.78,2.25-3.48,4.74-3.48l700.55-.02c4.01,0,6.37,2.56,6.38,6.08l.02,25.44c.15,3.22-1.94,6.49-5.81,6.49H37.79s-.13,69.41-.13,69.41l-.13,93.35c-.26,3.22-2.86,5.49-6.08,5.49l-26.19-.07c-2.47,0-3.96-2.27-5.25-3.6Z"/>
    <g>
      <path d="M596.42,556.22h-330.96c-1.11-1.01-3.37-2.39-3.37-4.5l-.02-27.81c0-2.96,2.95-5.24,6.19-5.24h292.97s.04-18.33.04-18.33l-69.6-.06c-2.6,0-5.04-2.73-5.04-5.41l.02-101.74c0-3.04,3.03-5.42,5.96-5.42l101.08-.03c3.18.24,5.09,2.23,5.56,5.33v69.57s74.64,0,74.64,0l-.18-68.71c.35-3.47,2.33-5.93,5.69-6.2l26.2.05c3.47,0,6.1,2.47,6.1,6.15l-.06,101.13c0,3.22-3.12,5.34-6.13,5.34l-106.26-.02-.06,52.23-2.75,3.66ZM561.28,425.46h-36.68v37.13h36.68v-37.13Z"/>
      <path d="M670.63,556.22h-31.46s-2.7-3.63-2.7-3.63l-.06-27.86c0-3.24,3.1-6,6.28-6h25.32c2.84,0,5.97,2.28,6.01,5.17l.32,23.59c.05,3.87-.7,6.76-3.71,8.74Z"/>
      <g>
        <path class="cls-1" d="M146.7,556.22H0s0-71.6,0-71.6c1.3-1.26,3.01-3.35,5.37-3.36l26.02-.14c3.34.4,6.12,2.64,6.18,6.07l.24,31.49,74.16.03.12-103.92.14-95.71c0-3.57,3.17-6.24,6.55-6.24l25.27-.02c3.07,0,5.71,2.22,5.71,5.36l.12,62.57.15,81.87h36.83s.02-31.2.02-31.2c.3-3.79,3.1-6.54,6.94-6.38l25.32.06c3.36.47,5.72,2.83,5.5,6.24v31.27s37.34,0,37.34,0l.02-144.63c0-3.25,3.36-5.18,6.08-5.18l26.07.03c2.47.42,5.54,2.01,5.54,5.15l.02,144.63,111.8-.04-.07-37.1h-69.1c-3.54-.33-5.53-2.89-5.52-6.29l.02-25.42c0-3.19,2.05-6.04,5.58-6.04l100.27-.02c3.27,0,6.86,1.62,6.86,5.52l-.04,100.89c0,3.56-2.25,6.24-6.1,6.24l-293.37-.02-.27,52.55-3.07,3.35Z"/>
        <path class="cls-1" d="M198.22,556.22h-31.46s-3.04-4.08-3.04-4.08l-.1-26.24c-.02-4.31,3.58-6.9,7.58-6.89h22.6c4.44.01,7.87,2.92,7.88,7.54l.07,21.82c.01,3.41-1.32,5.86-3.52,7.84Z"/>
        <path d="M243.63,556.22h-28.82c-1.44-1.39-4.26-2.69-4.26-5.34l.03-26.93c0-3.39,3.71-5.52,6.76-5.52h23.71c4.24,0,7,3.01,7.03,7.19l.16,20.97c.03,4.41-1.05,7.53-4.6,9.62Z"/>
        <path class="cls-1" d="M407.23,369.05l-26.54.31c-3.61.04-6.45-2.92-6.46-6.46l-.05-24.65c0-3.3,2.33-6.83,5.85-6.83l25.87-.02c2.55,0,5.9,2.19,5.94,4.89l.38,25.31c.04,2.86-1.32,7.42-4.99,7.47Z"/>
      </g>
    </g>
  </g>
  <path class="cls-1" d="M193.52,242.93l-21.52.03c-4.59,0-7.03-3.68-7.05-8.03l-.1-20.16c-.02-4.2,3.11-7.42,7.37-7.41l21.46.03c3.71,0,6.74,2.99,6.74,6.7l-.03,22.39c0,3.46-2.98,6.45-6.87,6.46Z"/>
  <path class="cls-1" d="M240.56,242.81l-22.27.15c-4.24.03-7.09-3.06-7.08-7.14l.05-21.94c0-3.36,3.13-6.5,6.47-6.44l24.14.38c2.97.05,4.62,3.33,4.62,6.04l-.03,22.85c0,3.05-2.27,6.08-5.91,6.11Z"/>
  <path class="cls-1" d="M594.29,242.92l-21.47.06c-4.69.01-7.27-3.56-7.28-8.07l-.02-20.45c0-4.07,3.3-6.9,7.26-6.89l21.93.07c3.46.01,6.22,2.79,6.23,6.27l.09,21.91c.01,3.64-2.5,7.09-6.73,7.1Z"/>
  <path d="M548.01,242.92l-21.52.07c-3.62.01-7.01-2.6-7.02-6.33l-.05-21.9c-.01-4.2,2.8-7.18,7.12-7.18h21c4.17,0,7.21,3.03,7.21,7.17v21.07c0,3.64-2.5,7.09-6.74,7.1Z"/>
</svg>